<?xml version="1.0" encoding="utf-8" ?>
<svg baseProfile="full" height="200mm" version="1.1" viewBox="0,0,200,200" width="200mm" xmlns="http://www.w3.org/2000/svg" xmlns:ev="http://www.w3.org/2001/xml-events" xmlns:xlink="http://www.w3.org/1999/xlink"><defs /><rect fill="#1a1a1a" height="200" width="200" x="0" y="0" /><text alignment-baseline="middle" fill="#e1ed5e" style="dominant-baseline: central; font-size:9.0px; font-family:Arial;" text-anchor="middle" x="100.0" y="100.0">2023</text><line stroke="#e1ed5e" stroke-width="0.3" x1="100.0" x2="100.0" y1="15.0" y2="10.0" /><path d="M 100.0 14.0 a86.0,86.0 0 0,1 42.46469731375804,11.215312516191453" fill="none" id="id49" stroke="none" /><text fill="#e1ed5e" style="font-size:6.75px; font-family:Arial;" text-anchor="middle"><textPath startOffset="22.20632615414155" xlink:href="#id49">January</textPath></text><path d="M 100.36148047927253 79.00311137660856 l 0.5740029963820773 -33.34143245793627 a54.34637308294535,54.34637308294535 0 0,0 0.9352062717113823,0.024153618871047618 l -1.1478359032883274 33.32661204692287" fill="#c4ff1e" stroke="none" /><path d="M 103.59715602781102 79.31037775812273 l 8.880239721617672 -51.07612898553838 a72.84235343481959,72.84235343481959 0 0,0 1.2334807748461292,0.2254107273924347 l -9.758115617566702 50.91570277679521" fill="#3bff9e" stroke="none" /><path d="M 106.0581310904928 79.89281104454417 l 12.681301019932608 -42.08976530880223 a64.9586594348394,64.9586594348394 0 0,0 1.0678418764766415,0.3317836690091979 l -13.403928269119968 41.865241504910514" fill="#34ff2f" stroke="none" /><line stroke="#e1ed5e" stroke-width="0.3" x1="143.23703022742887" x2="145.7803849466894" y1="26.81831364943548" y2="22.513508569990506" /><path d="M 143.74570117128098 25.957352633546492 a86.0,86.0 0 0,1 28.547481713284135,27.462654790039103" fill="none" id="id50" stroke="none" /><text fill="#e1ed5e" style="font-size:6.75px; font-family:Arial;" text-anchor="middle"><textPath startOffset="19.985693538727396" xlink:href="#id50">February</textPath></text><path d="M 110.99172775467656 82.1063720568725 l 9.942901673429445 -16.18622542245467 a39.996188752326184,39.996188752326184 0 0,0 0.5835269624674594,0.3654045303642567 l -10.220047788269166 16.012676550767466" fill="#ff5207" stroke="none" /><path d="M 113.6212207817346 84.01681056812373 l 9.86784417700417 -11.578963830965073 a36.213374119518406,36.213374119518406 0 0,0 0.4709570020935835,0.40840927132819277 l -10.065694977744517 11.407389566217208" fill="#ff0d01" stroke="none" /><path d="M 114.68862486808459 84.99185889309783 l 14.03799422285565 -14.343357533234396 a41.06980784978074,41.06980784978074 0 0,0 0.5009816411962332,0.4988302668174953 l -14.282811664219205 14.099591415766783" fill="#ff6509" stroke="none" /><path d="M 114.94478906791727 85.2469230424477 l 10.476566805958555 -10.342173157267881 a35.721378931833286,35.721378931833286 0 0,0 0.42820702985453807,0.44130498472568414 l -10.653038099516202 10.160303976992083" fill="#ff0400" stroke="none" /><line stroke="#e1ed5e" stroke-width="0.3" x1="172.23445277983987" x2="176.4835382374775" y1="55.19839476539836" y2="52.563006222186495" /><path d="M 173.08426987136738 54.67131705675599 a86.0,86.0 0 0,1 12.851231095245387,41.99856678651699" fill="none" id="id51" stroke="none" /><text fill="#e1ed5e" style="font-size:6.75px; font-family:Arial;" text-anchor="middle"><textPath startOffset="22.20632615414155" xlink:href="#id51">March</textPath></text><path d="M 118.3937258080291 89.86733742301442 l 52.88318872910485 -29.132080850806332 a81.37640089352826,81.37640089352826 0 0,0 0.6653175689604802,1.2327324110568016 l -53.376814397283795 28.217467456417072" fill="#49f1ff" stroke="none" /><path d="M 119.47837535516314 92.15188598940014 l 22.565913337183222 -9.092126904546268 a45.32873232187895,45.32873232187895 0 0,0 0.28536908517324966,0.7262331950718474 l -22.719075972238173 8.702344704578637" fill="#ffad10" stroke="none" /><path d="M 119.61058180528143 92.48833698450437 l 13.543757363763406 -5.187818611930684 a35.50333842530022,35.50333842530022 0 0,0 0.2136885271348515,0.5725790134698385 l -13.631050479399883 4.953916461431512" fill="#ff0000" stroke="none" /><path d="M 120.28053869075195 94.5502522615342 l 48.3264876791234 -12.986201745094425 a71.04089175029517,71.04089175029517 0 0,0 0.30717969324435973,1.1836886645535936 l -48.542863704238066 12.15241665499198" fill="#38ff85" stroke="none" /><path d="M 120.37134235888165 94.90015583598534 l 18.27023610482439 -4.573844734082293 a39.834053811580795,39.834053811580795 0 0,0 0.16079148551750172,0.6665845139173054 l -18.346260390602712 4.2586749885055815" fill="#ff4f07" stroke="none" /><path d="M 120.73433829027371 96.67025291283417 l 20.187613491695398 -3.241948032281044 a41.44627021082557,41.44627021082557 0 0,0 0.10705789989807585,0.7053777981612697 l -20.240427285032773 2.893971121727692" fill="#ff6b09" stroke="none" /><path d="M 120.83666639777658 97.38593545837742 l 25.599693404988777 -3.2116102225225074 a46.80036322711052,46.80036322711052 0 0,0 0.09339936676914383,0.8001887364459683 l -25.65118312476151 2.7704777477516864" fill="#ffc612" stroke="none" /><line stroke="#e1ed5e" stroke-width="0.3" x1="184.98032266829074" x2="189.97916517819016" y1="98.17113171792111" y2="98.06355123074" /><path d="M 185.9800911702706 98.14961562048488 a86.0,86.0 0 0,1 -9.607161424134198,41.387399972396054" fill="none" id="id52" stroke="none" /><text fill="#e1ed5e" style="font-size:6.75px; font-family:Arial;" text-anchor="middle"><textPath startOffset="21.466115282336823" xlink:href="#id52">April</textPath></text><path d="M 120.99513854157772 99.54816195383933 l 14.758035383036942 -0.31760885308929776 a35.761452630094745,35.761452630094745 0 0,0 0.007947544994514506,0.6155461183270263 l -14.761315935149174 0.0635264767018087" fill="#ff0500" stroke="none" /><path d="M 120.99980553446 99.90962569577887 l 17.16411970949393 -0.07386713052024402 a38.164278655242384,38.164278655242384 0 0,0 -0.0028272510356248987,0.6569535716696927 l -17.162848161168803 -0.2215959193531334" fill="#ff3104" stroke="none" /><path d="M 120.89721153311464 102.0752229133903 l 62.69163459934395 6.2256687401709 a84.0,84.0 0 0,0 -0.15527079399579247,1.4376147124608343 l -62.575181503847105 -7.303879774516526" fill="#4dd2ff" stroke="none" /><line stroke="#e1ed5e" stroke-width="0.3" x1="174.80103733775053" x2="179.2010983576182" y1="140.37084112569926" y2="142.7455964860345" /><path d="M 175.68104954172406 140.8457921977663 a86.0,86.0 0 0,1 -30.038265399797805,32.042727171017184" fill="none" id="id53" stroke="none" /><text fill="#e1ed5e" style="font-size:6.75px; font-family:Arial;" text-anchor="middle"><textPath startOffset="22.206326154141568" xlink:href="#id53">May</textPath></text><line stroke="#e1ed5e" stroke-width="0.3" x1="143.8653032363475" x2="146.44561519142675" y1="172.8068346515853" y2="177.08958963109032" /><path d="M 144.38136562736335 173.6633856474863 a86.0,86.0 0 0,1 -40.68145358897372,12.25698825130547" fill="none" id="id54" stroke="none" /><text fill="#e1ed5e" style="font-size:6.75px; font-family:Arial;" text-anchor="middle"><textPath startOffset="21.466115282336833" xlink:href="#id54">June</textPath></text><line stroke="#e1ed5e" stroke-width="0.3" x1="102.19456741930631" x2="102.32365962044197" y1="184.97166512339345" y2="189.96999836594603" /><path d="M 102.22038585953345 185.97133177190398 a86.0,86.0 0 0,1 -42.740103519485714,-10.115201625700543" fill="none" id="id55" stroke="none" /><text fill="#e1ed5e" style="font-size:6.75px; font-family:Arial;" text-anchor="middle"><textPath startOffset="22.20632615414155" xlink:href="#id55">July</textPath></text><line stroke="#e1ed5e" stroke-width="0.3" x1="58.666819895761336" x2="56.23545636021788" y1="174.27360380694188" y2="178.64263932499728" /><path d="M 58.180547188652646 175.14741091055294 a86.0,86.0 0 0,1 -31.652253787137756,-30.449443065178592" fill="none" id="id56" stroke="none" /><text fill="#e1ed5e" style="font-size:6.75px; font-family:Arial;" text-anchor="middle"><textPath startOffset="22.20632615414155" xlink:href="#id56">August</textPath></text><line stroke="#e1ed5e" stroke-width="0.3" x1="26.63291911575756" x2="22.317208475507996" y1="142.92168965132927" y2="145.44649492493687" /><path d="M 25.769776987707644 143.4266507060508 a86.0,86.0 0 0,1 -11.730757126820373,-40.83630448921669" fill="none" id="id57" stroke="none" /><text fill="#e1ed5e" style="font-size:6.75px; font-family:Arial;" text-anchor="middle"><textPath startOffset="21.46611528233685" xlink:href="#id57">September</textPath></text><line stroke="#e1ed5e" stroke-width="0.3" x1="15.007084014347285" x2="10.007500721073583" y1="101.09737516637583" y2="101.16192664675087" /><path d="M 14.007167355692545 101.11028546245083 a86.0,86.0 0 0,1 10.666146001902534,-42.60595125391555" fill="none" id="id58" stroke="none" /><text fill="#e1ed5e" style="font-size:6.75px; font-family:Arial;" text-anchor="middle"><textPath startOffset="22.20632615414155" xlink:href="#id58">October</textPath></text><line stroke="#e1ed5e" stroke-width="0.3" x1="26.266209847984243" x2="21.928928074336255" y1="57.711370442889674" y2="55.22380399835377" /><path d="M 25.398753493254645 57.213857153982495 a86.0,86.0 0 0,1 29.58750427330803,-30.492523968695096" fill="none" id="id59" stroke="none" /><text fill="#e1ed5e" style="font-size:6.75px; font-family:Arial;" text-anchor="middle"><textPath startOffset="21.46611528233685" xlink:href="#id59">November</textPath></text><line stroke="#e1ed5e" stroke-width="0.3" x1="56.762969772571076" x2="54.21961505331055" y1="26.818313649435495" y2="22.513508569990535" /><path d="M 56.25429882871897 25.957352633546506 a86.0,86.0 0 0,1 42.265352541879196,-11.944610805530505" fill="none" id="id60" stroke="none" /><text fill="#e1ed5e" style="font-size:6.75px; font-family:Arial;" text-anchor="middle"><textPath startOffset="22.20632615414155" xlink:href="#id60">December</textPath></text></svg>