<?xml version="1.0" encoding="utf-8" ?>
<svg baseProfile="full" height="200mm" version="1.1" viewBox="0,0,200,200" width="200mm" xmlns="http://www.w3.org/2000/svg" xmlns:ev="http://www.w3.org/2001/xml-events" xmlns:xlink="http://www.w3.org/1999/xlink"><defs /><rect fill="#1a1a1a" height="200" width="200" x="0" y="0" /><text alignment-baseline="middle" fill="#e1ed5e" style="dominant-baseline: central; font-size:9.0px; font-family:Arial;" text-anchor="middle" x="100.0" y="100.0">2022</text><line stroke="#e1ed5e" stroke-width="0.3" x1="100.0" x2="100.0" y1="15.0" y2="10.0" /><path d="M 100.0 14.0 a86.0,86.0 0 0,1 42.46469731375804,11.215312516191453" fill="none" id="id37" stroke="none" /><text fill="#e1ed5e" style="font-size:6.75px; font-family:Arial;" text-anchor="middle"><textPath startOffset="22.20632615414155" xlink:href="#id37">January</textPath></text><line stroke="#e1ed5e" stroke-width="0.3" x1="143.23703022742887" x2="145.7803849466894" y1="26.81831364943548" y2="22.513508569990506" /><path d="M 143.74570117128098 25.957352633546492 a86.0,86.0 0 0,1 28.547481713284135,27.462654790039103" fill="none" id="id38" stroke="none" /><text fill="#e1ed5e" style="font-size:6.75px; font-family:Arial;" text-anchor="middle"><textPath startOffset="19.985693538727396" xlink:href="#id38">February</textPath></text><line stroke="#e1ed5e" stroke-width="0.3" x1="172.23445277983987" x2="176.4835382374775" y1="55.19839476539836" y2="52.563006222186495" /><path d="M 173.08426987136738 54.67131705675599 a86.0,86.0 0 0,1 12.851231095245387,41.99856678651699" fill="none" id="id39" stroke="none" /><text fill="#e1ed5e" style="font-size:6.75px; font-family:Arial;" text-anchor="middle"><textPath startOffset="22.20632615414155" xlink:href="#id39">March</textPath></text><line stroke="#e1ed5e" stroke-width="0.3" x1="184.98032266829074" x2="189.97916517819016" y1="98.17113171792111" y2="98.06355123074" /><path d="M 185.9800911702706 98.14961562048488 a86.0,86.0 0 0,1 -9.607161424134198,41.387399972396054" fill="none" id="id40" stroke="none" /><text fill="#e1ed5e" style="font-size:6.75px; font-family:Arial;" text-anchor="middle"><textPath startOffset="21.466115282336823" xlink:href="#id40">April</textPath></text><path d="M 120.9764740272857 100.99374915477107 l 32.37296932939452 1.5336519791967236 a53.40927693724765,53.40927693724765 0 0,0 -0.0514093515885856,0.9179485074631835 l -32.3417736269184 -2.0906722029953304" fill="#a7ff21" stroke="none" /><path d="M 120.81339534386255 102.79330883721812 l 34.93279176011925 4.6882343952119765 a56.2459853302515,56.2459853302515 0 0,0 -0.1370418674251732,0.9584705015882843 l -34.84691584167748 -5.28885036878067" fill="#83ff25" stroke="none" /><path d="M 120.41448212921028 104.9243191809786 l 28.78721534903329 6.943964378472823 a50.6128757273102,50.6128757273102 0 0,0 -0.21158275427847514,0.8451679278860458 l -28.663421280459755 -7.438460145756265" fill="#ccff1d" stroke="none" /><path d="M 120.32669344350535 105.2749913415812 l 28.886947189167497 7.496467476674573 a50.84380576499237,50.84380576499237 0 0,0 -0.22713120118661767,0.8452396944961984 l -28.753627911639104 -7.992598104346319" fill="#c9ff1d" stroke="none" /><line stroke="#e1ed5e" stroke-width="0.3" x1="174.80103733775053" x2="179.2010983576182" y1="140.37084112569926" y2="142.7455964860345" /><path d="M 175.68104954172406 140.8457921977663 a86.0,86.0 0 0,1 -30.038265399797805,32.042727171017184" fill="none" id="id41" stroke="none" /><text fill="#e1ed5e" style="font-size:6.75px; font-family:Arial;" text-anchor="middle"><textPath startOffset="22.206326154141568" xlink:href="#id41">May</textPath></text><path d="M 118.48025628344425 109.97397251340804 l 17.95426817996369 9.690091662080539 a41.402294535114905,41.402294535114905 0 0,0 -0.3438827080838517,0.6242470026568963 l -17.78480906242833 -9.997709183135239" fill="#ffaf10" stroke="none" /><path d="M 117.14729908036423 112.12312394758627 l 43.792058144470246 30.960942963504927 a74.63137463945958,74.63137463945958 0 0,0 -0.7506502117448012,1.0425874903906733 l -43.25262814034984 -31.71016405934673" fill="#40ffc2" stroke="none" /><path d="M 115.80600337817218 113.82643327865902 l 27.164327467305622 23.762222005154285 a57.09077280099795,57.09077280099795 0 0,0 -0.6533934290217717,0.7340944440821442 l -26.75127518863551 -24.226290618977295" fill="#79ff26" stroke="none" /><line stroke="#e1ed5e" stroke-width="0.3" x1="143.8653032363475" x2="146.44561519142675" y1="172.8068346515853" y2="177.08958963109032" /><path d="M 144.38136562736335 173.6633856474863 a86.0,86.0 0 0,1 -40.68145358897372,12.25698825130547" fill="none" id="id42" stroke="none" /><text fill="#e1ed5e" style="font-size:6.75px; font-family:Arial;" text-anchor="middle"><textPath startOffset="21.466115282336833" xlink:href="#id42">June</textPath></text><line stroke="#e1ed5e" stroke-width="0.3" x1="102.19456741930631" x2="102.32365962044197" y1="184.97166512339345" y2="189.96999836594603" /><path d="M 102.22038585953345 185.97133177190398 a86.0,86.0 0 0,1 -42.740103519485714,-10.115201625700543" fill="none" id="id43" stroke="none" /><text fill="#e1ed5e" style="font-size:6.75px; font-family:Arial;" text-anchor="middle"><textPath startOffset="22.20632615414155" xlink:href="#id43">July</textPath></text><path d="M 95.51606077576429 120.51570834832081 l -7.040639468644697 32.21357353455464 a53.97400376044129,53.97400376044129 0 0,0 -0.9059404181975913,-0.2061890896929914 l 7.594100036235151 -32.08760771128396" fill="#a0ff22" stroke="none" /><path d="M 94.81253420990036 120.34920634021253 l -10.021766050527546 39.31302749884827 a61.57030842742888,61.57030842742888 0 0,0 -1.0247338683062237,-0.2706415282808703 l 10.696990361645259 -39.13469462126382" fill="#44ff2d" stroke="none" /><path d="M 90.10565033884886 118.52300852407294 l -4.450744639110714 8.33214750964524 a30.44636490746891,30.44636490746891 0 0,0 -0.4601419849120848,-0.25090609843670986 l 4.5935094358914395 -8.254300759448764" fill="#ff0000" stroke="none" /><line stroke="#e1ed5e" stroke-width="0.3" x1="58.666819895761336" x2="56.23545636021788" y1="174.27360380694188" y2="178.64263932499728" /><path d="M 58.180547188652646 175.14741091055294 a86.0,86.0 0 0,1 -31.652253787137756,-30.449443065178592" fill="none" id="id44" stroke="none" /><text fill="#e1ed5e" style="font-size:6.75px; font-family:Arial;" text-anchor="middle"><textPath startOffset="22.20632615414155" xlink:href="#id44">August</textPath></text><path d="M 85.97065885151581 115.62618273729859 l -37.55868174958631 41.833669748239664 a77.22019654333744,77.22019654333744 0 0,0 -0.9814335832226094,-0.8965163087081881 l 38.27321488227578 -41.1809606729449" fill="#43ffe1" stroke="none" /><path d="M 84.67929136418377 114.36230785411682 l -16.99565168778926 15.93247332899004 a44.29583401966182,44.29583401966182 0 0,0 -0.5166868406638643,-0.5607615186502394 l 17.267384936448853 -15.637560555538457" fill="#ffda14" stroke="none" /><line stroke="#e1ed5e" stroke-width="0.3" x1="26.63291911575756" x2="22.317208475507996" y1="142.92168965132927" y2="145.44649492493687" /><path d="M 25.769776987707644 143.4266507060508 a86.0,86.0 0 0,1 -11.730757126820373,-40.83630448921669" fill="none" id="id45" stroke="none" /><text fill="#e1ed5e" style="font-size:6.75px; font-family:Arial;" text-anchor="middle"><textPath startOffset="21.46611528233685" xlink:href="#id45">September</textPath></text><path d="M 79.1416061653843 102.43462659150553 l -11.075140335200999 1.292708891131772 a32.150328682223105,32.150328682223105 0 0,0 -0.05942865549660097,-0.5502355419525795 l 11.095751292198653 -1.1018770272944103" fill="#ff1d02" stroke="none" /><line stroke="#e1ed5e" stroke-width="0.3" x1="15.007084014347285" x2="10.007500721073583" y1="101.09737516637583" y2="101.16192664675087" /><path d="M 14.007167355692545 101.11028546245083 a86.0,86.0 0 0,1 10.666146001902534,-42.60595125391555" fill="none" id="id46" stroke="none" /><text fill="#e1ed5e" style="font-size:6.75px; font-family:Arial;" text-anchor="middle"><textPath startOffset="22.20632615414155" xlink:href="#id46">October</textPath></text><path d="M 79.05617556472873 98.46500227214037 l -51.0767544498375 -3.7434758999845235 a72.21375261531574,72.21375261531574 0 0,0 0.10153087244277809,-1.2389338120713647 l 51.00474909357522 4.622123629263666" fill="#3cffa5" stroke="none" /><path d="M 79.08570108090925 98.10471618934814 l -26.312418088771828 -2.3844691240035267 a47.42023918668514,47.42023918668514 0 0,0 0.0806660592659337,-0.8122962083475852 l 26.267474903823665 2.837040863055542" fill="#f8ff18" stroke="none" /><path d="M 79.54389044137918 95.25157060432595 l -20.32097262665898 -4.7170603722373095 a41.86127002482723,41.86127002482723 0 0,0 0.16897441131097604,-0.7005080242008618 l 20.236765415087184 5.066153628097568" fill="#ffb610" stroke="none" /><path d="M 80.38941819471856 92.48833698450439 l -58.83174541584431 -22.534989046486853 a84.0,84.0 0 0,0 0.5288258004732356,-1.3458039804169464 l 58.435126065489385 23.544342031799562" fill="#4dd2ff" stroke="none" /><path d="M 81.26839172434947 90.50648371742162 l -22.009318128379775 -11.154718641635936 a45.67463945937786,45.67463945937786 0 0,0 0.3614616296172109,-0.6982288174945112 l 21.81404706560245 11.531920181390783" fill="#ffee16" stroke="none" /><line stroke="#e1ed5e" stroke-width="0.3" x1="26.266209847984243" x2="21.928928074336255" y1="57.711370442889674" y2="55.22380399835377" /><path d="M 25.398753493254645 57.213857153982495 a86.0,86.0 0 0,1 29.58750427330803,-30.492523968695096" fill="none" id="id47" stroke="none" /><text fill="#e1ed5e" style="font-size:6.75px; font-family:Arial;" text-anchor="middle"><textPath startOffset="21.46611528233685" xlink:href="#id47">November</textPath></text><line stroke="#e1ed5e" stroke-width="0.3" x1="56.762969772571076" x2="54.21961505331055" y1="26.818313649435495" y2="22.513508569990535" /><path d="M 56.25429882871897 25.957352633546506 a86.0,86.0 0 0,1 42.265352541879196,-11.944610805530505" fill="none" id="id48" stroke="none" /><text fill="#e1ed5e" style="font-size:6.75px; font-family:Arial;" text-anchor="middle"><textPath startOffset="22.20632615414155" xlink:href="#id48">December</textPath></text></svg>