<?xml version="1.0" encoding="utf-8" ?>
<svg baseProfile="full" height="200mm" version="1.1" viewBox="0,0,200,200" width="200mm" xmlns="http://www.w3.org/2000/svg" xmlns:ev="http://www.w3.org/2001/xml-events" xmlns:xlink="http://www.w3.org/1999/xlink"><defs /><rect fill="#1a1a1a" height="200" width="200" x="0" y="0" /><text alignment-baseline="middle" fill="#e1ed5e" style="dominant-baseline: central; font-size:9.0px; font-family:Arial;" text-anchor="middle" x="100.0" y="100.0">2024</text><line stroke="#e1ed5e" stroke-width="0.3" x1="100.0" x2="100.0" y1="15.0" y2="10.0" /><path d="M 100.0 14.0 a86.0,86.0 0 0,1 42.35913384403234,11.155469271406648" fill="none" id="id61" stroke="none" /><text fill="#e1ed5e" style="font-size:6.75px; font-family:Arial;" text-anchor="middle"><textPath startOffset="22.145653131862478" xlink:href="#id61">January</textPath></text><path d="M 102.15924093988457 79.11130261209362 l 2.917316542973707 -28.222391177044223 a49.37277038926604,49.37277038926604 0 0,0 0.8423090985229181,0.09438249137814446 l -3.401361543097422 28.168152925159106" fill="#ff3e05" stroke="none" /><path d="M 104.29559338865022 79.4440306129975 l 8.613844625400803 -41.220364779398636 a63.11076812143462,63.11076812143462 0 0,0 1.0585706880192534,0.23071055451159622 l -9.32017773003919 41.06642276675332" fill="#a1ff22" stroke="none" /><path d="M 107.06938296918511 80.22567764915836 l 8.683077926913574 -24.28811434784369 a46.793571696428245,46.793571696428245 0 0,0 0.7540691569010392,0.2769046393602209 l -9.098736235468738 24.13547885947475" fill="#ff0000" stroke="none" /><path d="M 109.06512990194946 81.05736502329252 l 19.736689464315152 -41.24209009853798 a66.72140534483529,66.72140534483529 0 0,0 1.0289068226550497,0.5032898861389802 l -20.44175653623227 40.897206462301774" fill="#60ff29" stroke="none" /><path d="M 109.3889696526874 81.21577127319529 l 19.330223697002687 -38.673396197512304 a64.23527635653464,64.23527635653464 0 0,0 0.9821046973232685,0.5014696562262796 l -19.991255616039535 38.33586858961319" fill="#8cff24" stroke="none" /><path d="M 109.71004243097381 81.37971332152246 l 19.944457446968666 -38.246126929849915 a64.13406551657442,64.13406551657442 0 0,0 0.9718179493548345,0.5174383201677645 l -20.59806421211006 37.89811814195958" fill="#8eff24" stroke="none" /><path d="M 110.02825361518725 81.54914285379988 l 15.895654987199347 -29.246214811513035 a54.28682814978381,54.28682814978381 0 0,0 0.8149637181328745,0.4520466366159292 l -16.395362893488322 28.969035259463958" fill="#ffac10" stroke="none" /><line stroke="#e1ed5e" stroke-width="0.3" x1="143.13028292997686" x2="145.6673583964461" y1="26.7553504044142" y2="22.446841604673864" /><path d="M 143.63769802327073 25.89364864446614 a86.0,86.0 0 0,1 29.32050498858742,28.57503671076993" fill="none" id="id62" stroke="none" /><text fill="#e1ed5e" style="font-size:6.75px; font-family:Arial;" text-anchor="middle"><textPath startOffset="20.669276256404974" xlink:href="#id62">February</textPath></text><path d="M 113.86319453409587 84.22622945171908 l 29.417964067999044 -33.47224292820277 a65.56240182654771,65.56240182654771 0 0,0 0.8389957283929701,0.7502351538333815 l -29.98822482321539 32.962312244486" fill="#74ff27" stroke="none" /><path d="M 114.13192950727249 84.46653392183569 l 33.885140079074965 -37.24570474975039 a71.35320486805294,71.35320486805294 0 0,0 0.8989492252105846,0.8320539823222477 l -34.51951907559951 36.65853302129576" fill="#33ff51" stroke="none" /><path d="M 114.91283532996326 85.21462403516908 l 44.73850598988975 -44.35612789449276 a84.0,84.0 0 0,0 1.0064527953967528,1.032709231729032 l -45.49334558643732 43.581595970695986" fill="#4dd2ff" stroke="none" /><path d="M 116.1254893667686 86.54754324733833 l 31.494039436497754 -26.273447822254056 a62.01424850581054,62.01424850581054 0 0,0 0.6749311308823422,0.823306237409642 l -31.940417386618723 25.728939303145918" fill="#b5ff1f" stroke="none" /><line stroke="#e1ed5e" stroke-width="0.3" x1="172.87174338648825" x2="177.1583165268699" y1="56.24261187166439" y2="53.66864786411523" /><path d="M 173.72905801456457 55.72781907015455 a86.0,86.0 0 0,1 12.242430191666344,42.057860355516425" fill="none" id="id63" stroke="none" /><text fill="#e1ed5e" style="font-size:6.75px; font-family:Arial;" text-anchor="middle"><textPath startOffset="22.145653131862474" xlink:href="#id63">March</textPath></text><line stroke="#e1ed5e" stroke-width="0.3" x1="184.99686870605535" x2="189.99668451229388" y1="99.2704041080226" y2="99.22748670261217" /><path d="M 185.99683186730306 99.26182062694052 a86.0,86.0 0 0,1 -10.086455211305974,41.156179273409016" fill="none" id="id64" stroke="none" /><text fill="#e1ed5e" style="font-size:6.75px; font-family:Arial;" text-anchor="middle"><textPath startOffset="21.40746469413373" xlink:href="#id64">April</textPath></text><line stroke="#e1ed5e" stroke-width="0.3" x1="174.33088141563837" x2="178.70328620479359" y1="141.23008692659167" y2="143.65538615756765" /><path d="M 175.20536237346943 141.71514677278685 a86.0,86.0 0 0,1 -30.301960400862466,31.631185727798858" fill="none" id="id65" stroke="none" /><text fill="#e1ed5e" style="font-size:6.75px; font-family:Arial;" text-anchor="middle"><textPath startOffset="22.145653131862474" xlink:href="#id65">May</textPath></text><line stroke="#e1ed5e" stroke-width="0.3" x1="143.1302829299769" x2="145.66735839644613" y1="173.24464959558577" y2="177.55315839532614" /><path d="M 143.63769802327073 174.10635135553383 a86.0,86.0 0 0,1 -40.68552437913181,11.842963189579606" fill="none" id="id66" stroke="none" /><text fill="#e1ed5e" style="font-size:6.75px; font-family:Arial;" text-anchor="middle"><textPath startOffset="21.407464694133747" xlink:href="#id66">June</textPath></text><line stroke="#e1ed5e" stroke-width="0.3" x1="101.45913802915013" x2="101.54496967792366" y1="184.9874750549273" y2="189.98673829345242" /><path d="M 101.47630435890484 185.9873277026323 a86.0,86.0 0 0,1 -42.54439059252881,-10.42667462771756" fill="none" id="id67" stroke="none" /><text fill="#e1ed5e" style="font-size:6.75px; font-family:Arial;" text-anchor="middle"><textPath startOffset="22.145653131862474" xlink:href="#id67">July</textPath></text><line stroke="#e1ed5e" stroke-width="0.3" x1="58.13341422392154" x2="55.67067388415222" y1="173.97424548756322" y2="178.32567169271397" /><path d="M 57.64086615596768 174.84453072859336 a86.0,86.0 0 0,1 -31.369924170532247,-30.572349798747897" fill="none" id="id68" stroke="none" /><text fill="#e1ed5e" style="font-size:6.75px; font-family:Arial;" text-anchor="middle"><textPath startOffset="22.145653131862474" xlink:href="#id68">August</textPath></text><line stroke="#e1ed5e" stroke-width="0.3" x1="26.387840678322732" x2="22.057713659400548" y1="142.50000000000003" y2="145.00000000000006" /><path d="M 25.521815274538298 143.00000000000003 a86.0,86.0 0 0,1 -11.493303480769221,-40.785679425670985" fill="none" id="id69" stroke="none" /><text fill="#e1ed5e" style="font-size:6.75px; font-family:Arial;" text-anchor="middle"><textPath startOffset="21.40746469413373" xlink:href="#id69">September</textPath></text><line stroke="#e1ed5e" stroke-width="0.3" x1="15.003131293944662" x2="10.003315487706104" y1="100.72959589197737" y2="100.7725132973878" /><path d="M 14.003168132696942 100.73817937305945 a86.0,86.0 0 0,1 10.791469493833604,-42.45332614584628" fill="none" id="id70" stroke="none" /><text fill="#e1ed5e" style="font-size:6.75px; font-family:Arial;" text-anchor="middle"><textPath startOffset="22.145653131862435" xlink:href="#id70">October</textPath></text><line stroke="#e1ed5e" stroke-width="0.3" x1="26.387840678322718" x2="22.05771365940052" y1="57.49999999999999" y2="54.99999999999999" /><path d="M 25.521815274538284 56.99999999999999 a86.0,86.0 0 0,1 29.574782752854787,-30.34633250058573" fill="none" id="id71" stroke="none" /><text fill="#e1ed5e" style="font-size:6.75px; font-family:Arial;" text-anchor="middle"><textPath startOffset="21.40746469413373" xlink:href="#id71">November</textPath></text><line stroke="#e1ed5e" stroke-width="0.3" x1="56.869717070023135" x2="54.33264160355391" y1="26.7553504044142" y2="22.446841604673864" /><path d="M 56.362301976729285 25.89364864446614 a86.0,86.0 0 0,1 42.16139366436587,-11.88097634709845" fill="none" id="id72" stroke="none" /><text fill="#e1ed5e" style="font-size:6.75px; font-family:Arial;" text-anchor="middle"><textPath startOffset="22.145653131862474" xlink:href="#id72">December</textPath></text></svg>