<?xml version="1.0" encoding="utf-8" ?>
<svg baseProfile="full" height="200mm" version="1.1" viewBox="0,0,200,200" width="200mm" xmlns="http://www.w3.org/2000/svg" xmlns:ev="http://www.w3.org/2001/xml-events" xmlns:xlink="http://www.w3.org/1999/xlink"><defs /><rect fill="#1a1a1a" height="200" width="200" x="0" y="0" /><text alignment-baseline="middle" fill="#e1ed5e" style="dominant-baseline: central; font-size:9.0px; font-family:Arial;" text-anchor="middle" x="100.0" y="100.0">2024</text><line stroke="#e1ed5e" stroke-width="0.3" x1="100.0" x2="100.0" y1="15.0" y2="10.0" /><path d="M 100.0 14.0 a86.0,86.0 0 0,1 42.35913384403234,11.155469271406648" fill="none" id="id61" stroke="none" /><text fill="#e1ed5e" style="font-size:6.75px; font-family:Arial;" text-anchor="middle"><textPath startOffset="22.145653131862478" xlink:href="#id61">January</textPath></text><path d="M 102.15924093988457 79.11130261209362 l 2.0672133472408287 -19.99841390978032 a41.104972766206515,41.104972766206515 0 0,0 0.7012588575147041,0.07857751767052548 l -2.4102081063563294 19.959980631602825" fill="#ff2803" stroke="none" /><path d="M 104.29559338865022 79.4440306129975 l 6.103778701551656 -29.20879067968752 a50.83973135615192,50.83973135615192 0 0,0 0.8527459101249231,0.1858520021469162 l -6.604287028295713 29.099707219406884" fill="#ffdc14" stroke="none" /><path d="M 107.06938296918511 80.22567764915836 l 6.1528374865180835 -17.210581512006485 a39.27735005729555,39.27735005729555 0 0,0 0.6329467311270144,0.23242680689558792 l -6.447373369299222 17.102423856102178" fill="#ff0400" stroke="none" /><path d="M 109.06512990194946 81.05736502329252 l 13.985437401109426 -29.224185262015617 a53.39823241365123,53.39823241365123 0 0,0 0.8234509654610964,0.4027911308611192 l -14.48504861583259 28.979800381057277" fill="#f7ff19" stroke="none" /><path d="M 109.3889696526874 81.21577127319529 l 13.697415362017184 -27.404006258826705 a51.63655898813438,51.63655898813438 0 0,0 0.7894806407367133,0.4031144404324423 l -14.165823224467475 27.16483386672143" fill="#ffea16" stroke="none" /><path d="M 109.71004243097381 81.37971332152246 l 14.132661996227522 -27.10124283909948 a51.56484088824044,51.56484088824044 0 0,0 0.7813575753726012,0.416028898745453 l -14.595808387386684 26.854643472631455" fill="#ffe915" stroke="none" /><path d="M 110.02825361518725 81.54914285379988 l 11.263676624950293 -20.723896335570558 a44.58707888736811,44.58707888736811 0 0,0 0.669349321542154,0.37127678544697085 l -11.617770134648547 20.52748663469044" fill="#ff6b09" stroke="none" /><line stroke="#e1ed5e" stroke-width="0.3" x1="143.13028292997686" x2="145.6673583964461" y1="26.7553504044142" y2="22.446841604673864" /><path d="M 143.63769802327073 25.89364864446614 a86.0,86.0 0 0,1 29.32050498858742,28.57503671076993" fill="none" id="id62" stroke="none" /><text fill="#e1ed5e" style="font-size:6.75px; font-family:Arial;" text-anchor="middle"><textPath startOffset="20.669276256404974" xlink:href="#id62">February</textPath></text><path d="M 113.86319453409587 84.22622945171908 l 20.84559802620186 -23.718463980167353 a52.57696139036318,52.57696139036318 0 0,0 0.6728223004260794,0.6016418498691832 l -21.249685353451316 23.35712660041478" fill="#fffa17" stroke="none" /><path d="M 114.13192950727249 84.46653392183569 l 24.01104330392173 -26.392342706695803 a56.680330072611206,56.680330072611206 0 0,0 0.7140918042528904,0.6609527132448553 l -24.460564879488587 25.976272247318573" fill="#c1ff1e" stroke="none" /><path d="M 114.91283532996326 85.21462403516908 l 31.70174897223946 -31.430795480956178 a65.64186143592784,65.64186143592784 0 0,0 0.7864932730623319,0.8070113844376263 l -32.236629046452606 30.88196140445081" fill="#3eff2e" stroke="none" /><path d="M 116.1254893667686 86.54754324733833 l 22.316707056853637 -18.617390748018178 a50.06273648722387,50.06273648722387 0 0,0 0.5448570315130206,0.664636985931786 l -22.633010907605286 18.231551480387896" fill="#ffcf13" stroke="none" /><path d="M 116.35404254752997 86.82634096563983 l 23.875692921362557 -19.23256814582655 a51.65844728552091,51.65844728552091 0 0,0 0.550368038033545,0.6953720369500803 l -24.202327390037663 18.819876164961794" fill="#ffea16" stroke="none" /><path d="M 116.57777611688842 87.10902102172516 l 23.044087578444465 -17.919221881916055 a50.19123987048782,50.19123987048782 0 0,0 0.5230596952281876,0.684701931495485 l -23.348299251026962 17.52099903717969" fill="#ffd113" stroke="none" /><path d="M 116.7966241395341 87.39550010848427 l 23.37911014202331 -17.544120104186657 a50.2297612248712,50.2297612248712 0 0,0 0.5116211658469814,0.6941123711613584 l -23.67683332745412 17.140201423756423" fill="#ffd213" stroke="none" /><path d="M 117.21940702142032 87.97951657250589 l 23.45187971797661 -16.371233407912715 a49.60083819755638,49.60083819755638 0 0,0 0.48138856605830693,0.7023603043506667 l -23.72945802085024 15.966238368491998" fill="#ffc712" stroke="none" /><line stroke="#e1ed5e" stroke-width="0.3" x1="172.87174338648825" x2="177.1583165268699" y1="56.24261187166439" y2="53.66864786411523" /><path d="M 173.72905801456457 55.72781907015455 a86.0,86.0 0 0,1 12.242430191666344,42.057860355516425" fill="none" id="id63" stroke="none" /><text fill="#e1ed5e" style="font-size:6.75px; font-family:Arial;" text-anchor="middle"><textPath startOffset="22.145653131862474" xlink:href="#id63">March</textPath></text><path d="M 120.35273937422433 94.82641323984039 l 29.819888396105963 -7.5800990205236545 a51.76822460131814,51.76822460131814 0 0,0 0.21154092385234732,0.863159157834832 l -29.9456168464746 7.067084038080727" fill="#ffec16" stroke="none" /><path d="M 120.51834098615036 95.52812308129327 l 20.496154848827434 -4.467041553338906 a41.97729305287908,41.97729305287908 0 0,0 0.1474048420531289,0.7053855303777384 l -20.56981740170493 4.114539571675763" fill="#ff3905" stroke="none" /><path d="M 120.592083275326 95.88100663000786 l 28.358491078164214 -5.6724924414958355 a49.92025564771423,49.92025564771423 0 0,0 0.16087089475730565,0.8417444989398477 l -28.451688265203675 5.184845377522674" fill="#ffcc13" stroke="none" /><path d="M 120.7213421655516 96.59031103205396 l 62.16402649665483 -10.229066903838131 a84.0,84.0 0 0,0 0.22191403144693922,1.424847272274235 l -62.330462020240034 9.160431449632455" fill="#4dd2ff" stroke="none" /><path d="M 120.77682067341334 96.94652285012252 l 17.889709997966474 -2.629171303703184 a39.08187671552812,39.08187671552812 0 0,0 0.09185261520116536,0.6645997672665679 l -17.93220712972285 2.3216832282365303" fill="#ff0000" stroke="none" /><path d="M 120.9064616781168 98.02013634271609 l 29.226274230179282 -2.7677585560407287 a50.35703651260083,50.35703651260083 0 0,0 0.07411207477533734,0.8612946491362624 l -29.26947992765236 2.2656428595288043" fill="#ffd413" stroke="none" /><path d="M 120.93736805541906 98.37931529534042 l 30.77558994003591 -2.3822252997927276 a51.867651895410056,51.867651895410056 0 0,0 0.06109525007436652,0.8883115275170543 l -30.811949151275343 1.8535703481213393" fill="#ffee16" stroke="none" /><line stroke="#e1ed5e" stroke-width="0.3" x1="184.99686870605535" x2="189.99668451229388" y1="99.2704041080226" y2="99.22748670261217" /><path d="M 185.99683186730306 99.26182062694052 a86.0,86.0 0 0,1 -10.086455211305974,41.156179273409016" fill="none" id="id64" stroke="none" /><text fill="#e1ed5e" style="font-size:6.75px; font-family:Arial;" text-anchor="middle"><textPath startOffset="21.40746469413373" xlink:href="#id64">April</textPath></text><line stroke="#e1ed5e" stroke-width="0.3" x1="174.33088141563837" x2="178.70328620479359" y1="141.23008692659167" y2="143.65538615756765" /><path d="M 175.20536237346943 141.71514677278685 a86.0,86.0 0 0,1 -30.301960400862466,31.631185727798858" fill="none" id="id65" stroke="none" /><text fill="#e1ed5e" style="font-size:6.75px; font-family:Arial;" text-anchor="middle"><textPath startOffset="22.145653131862474" xlink:href="#id65">May</textPath></text><line stroke="#e1ed5e" stroke-width="0.3" x1="143.1302829299769" x2="145.66735839644613" y1="173.24464959558577" y2="177.55315839532614" /><path d="M 143.63769802327073 174.10635135553383 a86.0,86.0 0 0,1 -40.68552437913181,11.842963189579606" fill="none" id="id66" stroke="none" /><text fill="#e1ed5e" style="font-size:6.75px; font-family:Arial;" text-anchor="middle"><textPath startOffset="21.407464694133747" xlink:href="#id66">June</textPath></text><line stroke="#e1ed5e" stroke-width="0.3" x1="101.45913802915013" x2="101.54496967792366" y1="184.9874750549273" y2="189.98673829345242" /><path d="M 101.47630435890484 185.9873277026323 a86.0,86.0 0 0,1 -42.54439059252881,-10.42667462771756" fill="none" id="id67" stroke="none" /><text fill="#e1ed5e" style="font-size:6.75px; font-family:Arial;" text-anchor="middle"><textPath startOffset="22.145653131862474" xlink:href="#id67">July</textPath></text><line stroke="#e1ed5e" stroke-width="0.3" x1="58.13341422392154" x2="55.67067388415222" y1="173.97424548756322" y2="178.32567169271397" /><path d="M 57.64086615596768 174.84453072859336 a86.0,86.0 0 0,1 -31.369924170532247,-30.572349798747897" fill="none" id="id68" stroke="none" /><text fill="#e1ed5e" style="font-size:6.75px; font-family:Arial;" text-anchor="middle"><textPath startOffset="22.145653131862474" xlink:href="#id68">August</textPath></text><line stroke="#e1ed5e" stroke-width="0.3" x1="26.387840678322732" x2="22.057713659400548" y1="142.50000000000003" y2="145.00000000000006" /><path d="M 25.521815274538298 143.00000000000003 a86.0,86.0 0 0,1 -11.493303480769221,-40.785679425670985" fill="none" id="id69" stroke="none" /><text fill="#e1ed5e" style="font-size:6.75px; font-family:Arial;" text-anchor="middle"><textPath startOffset="21.40746469413373" xlink:href="#id69">September</textPath></text><line stroke="#e1ed5e" stroke-width="0.3" x1="15.003131293944662" x2="10.003315487706104" y1="100.72959589197737" y2="100.7725132973878" /><path d="M 14.003168132696942 100.73817937305945 a86.0,86.0 0 0,1 10.791469493833604,-42.45332614584628" fill="none" id="id70" stroke="none" /><text fill="#e1ed5e" style="font-size:6.75px; font-family:Arial;" text-anchor="middle"><textPath startOffset="22.145653131862435" xlink:href="#id70">October</textPath></text><line stroke="#e1ed5e" stroke-width="0.3" x1="26.387840678322718" x2="22.05771365940052" y1="57.49999999999999" y2="54.99999999999999" /><path d="M 25.521815274538284 56.99999999999999 a86.0,86.0 0 0,1 29.574782752854787,-30.34633250058573" fill="none" id="id71" stroke="none" /><text fill="#e1ed5e" style="font-size:6.75px; font-family:Arial;" text-anchor="middle"><textPath startOffset="21.40746469413373" xlink:href="#id71">November</textPath></text><line stroke="#e1ed5e" stroke-width="0.3" x1="56.869717070023135" x2="54.33264160355391" y1="26.7553504044142" y2="22.446841604673864" /><path d="M 56.362301976729285 25.89364864446614 a86.0,86.0 0 0,1 42.16139366436587,-11.88097634709845" fill="none" id="id72" stroke="none" /><text fill="#e1ed5e" style="font-size:6.75px; font-family:Arial;" text-anchor="middle"><textPath startOffset="22.145653131862474" xlink:href="#id72">December</textPath></text></svg>