<?xml version="1.0" encoding="utf-8" ?>
<svg baseProfile="full" height="200mm" version="1.1" viewBox="0,0,200,200" width="200mm" xmlns="http://www.w3.org/2000/svg" xmlns:ev="http://www.w3.org/2001/xml-events" xmlns:xlink="http://www.w3.org/1999/xlink"><defs /><rect fill="#1a1a1a" height="200" width="200" x="0" y="0" /><text alignment-baseline="middle" fill="#e1ed5e" style="dominant-baseline: central; font-size:9.0px; font-family:Arial;" text-anchor="middle" x="100.0" y="100.0">2024</text><line stroke="#e1ed5e" stroke-width="0.3" x1="100.0" x2="100.0" y1="15.0" y2="10.0" /><path d="M 100.0 14.0 a86.0,86.0 0 0,1 42.35913384403234,11.155469271406648" fill="none" id="id61" stroke="none" /><text fill="#e1ed5e" style="font-size:6.75px; font-family:Arial;" text-anchor="middle"><textPath startOffset="22.145653131862478" xlink:href="#id61">January</textPath></text><path d="M 102.15924093988457 79.11130261209362 l 0.6014331936113357 -5.818320571978833 a26.849322709911775,26.849322709911775 0 0,0 0.45805468539503796,0.05132598290915831 l -0.7012237806071704 5.807138828562704" fill="#ff1902" stroke="none" /><path d="M 104.29559338865022 79.4440306129975 l 1.775827890464657 -8.497979312806228 a29.681544626242196,29.681544626242196 0 0,0 0.4978550261980418,0.10850518577597948 l -1.9214453332818329 8.466242668896529" fill="#ff4306" stroke="none" /><path d="M 107.06938296918511 80.22567764915836 l 1.7901010092776866 -5.007231119366597 a26.31759580131569,26.31759580131569 0 0,0 0.4241028534070042,0.1557364422076727 l -1.8757930143388153 4.975763828150202" fill="#ff1101" stroke="none" /><path d="M 109.06512990194946 81.05736502329252 l 4.068910589914427 -8.502458198754917 a30.425912624796204,30.425912624796204 0 0,0 0.4691961885899109,0.22950736756017054 l -4.214267027766406 8.431357081097525" fill="#ff4e07" stroke="none" /><path d="M 109.3889696526874 81.21577127319529 l 3.9851137166826893 -7.972896955212562 a29.9133729414476,29.9133729414476 0 0,0 0.45735094086802075,0.2335266491616831 l -4.121391879264289 7.903312354378046" fill="#ff4706" stroke="none" /><path d="M 109.71004243097381 81.37971332152246 l 4.111743981319432 -7.884811237945753 a29.892507341911628,29.892507341911628 0 0,0 0.4529585790656506,0.24117493035903026 l -4.246491376171641 7.81306583986415" fill="#ff4606" stroke="none" /><path d="M 110.02825361518725 81.54914285379988 l 3.277043955521635 -6.029391777006752 a27.862403535719647,27.862403535719647 0 0,0 0.41827545936074473,0.23201034644364277 l -3.38006360303848 5.972248515129962" fill="#ff2803" stroke="none" /><line stroke="#e1ed5e" stroke-width="0.3" x1="143.13028292997686" x2="145.6673583964461" y1="26.7553504044142" y2="22.446841604673864" /><path d="M 143.63769802327073 25.89364864446614 a86.0,86.0 0 0,1 29.32050498858742,28.57503671076993" fill="none" id="id62" stroke="none" /><text fill="#e1ed5e" style="font-size:6.75px; font-family:Arial;" text-anchor="middle"><textPath startOffset="20.669276256404974" xlink:href="#id62">February</textPath></text><path d="M 113.86319453409587 84.22622945171908 l 6.0647995575157045 -6.900628596553662 a30.186972771289618,30.186972771289618 0 0,0 0.38629977704647656,0.3454316426775894 l -6.182364361385556 6.795501423992685" fill="#ff4b07" stroke="none" /><path d="M 114.13192950727249 84.46653392183569 l 6.985751362089746 -7.678564470454574 a31.380803168342325,31.380803168342325 0 0,0 0.395353631933323,0.3659334194304752 l -7.116534765337034 7.557513304891724" fill="#ff5c08" stroke="none" /><path d="M 114.91283532996326 85.21462403516908 l 9.223278358224347 -9.144447392954046 a33.98806305019319,33.98806305019319 0 0,0 0.40723072698795265,0.4178546009586061 l -9.378895886363111 8.984770099927697" fill="#ff820b" stroke="none" /><path d="M 116.1254893667686 86.54754324733833 l 6.49280269692863 -5.416526934307883 a29.455486437297765,29.455486437297765 0 0,0 0.3205783388627557,0.3910534481037875 l -6.584827855030013 5.3042712045056" fill="#ff4006" stroke="none" /><path d="M 116.35404254752997 86.82634096563983 l 6.9463726434162565 -5.595506093616833 a29.919741103020023,29.919741103020023 0 0,0 0.31876430815519613,0.4027482901457146 l -7.041403382213011 5.475437859556441" fill="#ff4706" stroke="none" /><path d="M 116.57777611688842 87.10902102172516 l 6.70442613224311 -5.213402311791169 a29.492873096149136,29.492873096149136 0 0,0 0.3073550932967906,0.40233768335654124 l -6.792933202894207 5.097543715193746" fill="#ff4106" stroke="none" /><path d="M 116.7966241395341 87.39550010848427 l 6.801897295833469 -5.10427053765175 a29.50408046437746,29.50408046437746 0 0,0 0.3005172964460304,0.4077094286469419 l -6.8885166118633245 4.986754799735933" fill="#ff4106" stroke="none" /><path d="M 117.21940702142032 87.97951657250589 l 6.823068810869276 -4.763031936214785 a29.321102163971972,29.321102163971972 0 0,0 0.28456864518589864,0.4151941577632235 l -6.903827192870499 4.645203043381512" fill="#ff3e05" stroke="none" /><line stroke="#e1ed5e" stroke-width="0.3" x1="172.87174338648825" x2="177.1583165268699" y1="56.24261187166439" y2="53.66864786411523" /><path d="M 173.72905801456457 55.72781907015455 a86.0,86.0 0 0,1 12.242430191666344,42.057860355516425" fill="none" id="id63" stroke="none" /><text fill="#e1ed5e" style="font-size:6.75px; font-family:Arial;" text-anchor="middle"><textPath startOffset="22.145653131862474" xlink:href="#id63">March</textPath></text><path d="M 120.35273937422433 94.82641323984039 l 8.675771533277665 -2.20534719741851 a29.95167961663021,29.95167961663021 0 0,0 0.12239179585212481,0.4994002933794055 l -8.712350855646081 2.0560910794310097" fill="#ff4706" stroke="none" /><path d="M 120.51834098615036 95.52812308129327 l 5.963132873506281 -1.2996370553649337 a27.103114790233665,27.103114790233665 0 0,0 0.09517360611532343,0.4554401584950808 l -5.984564190445972 1.1970804455844484" fill="#ff1d02" stroke="none" /><path d="M 120.592083275326 95.88100663000786 l 8.250593910833473 -1.6503498535255685 a29.41403318988666,29.41403318988666 0 0,0 0.09478841356644407,0.4959730335506581 l -8.277708616682075 1.508474254941596" fill="#ff3f05" stroke="none" /><path d="M 120.7213421655516 96.59031103205396 l 18.085946007229985 -2.9760355329800747 a39.32916338707248,39.32916338707248 0 0,0 0.10390110953167396,0.6671196568202135 l -18.134368608899923 2.6651276942284197" fill="#ffcb12" stroke="none" /><path d="M 120.77682067341334 96.94652285012252 l 5.204816150794787 -0.7649287364790162 a26.26072496291772,26.26072496291772 0 0,0 0.061719560769304876,0.4465719961618948 l -5.217180228119305 0.6754684321170358" fill="#ff1001" stroke="none" /><path d="M 120.9064616781168 98.02013634271609 l 8.50306596127527 -0.8052491871371161 a29.541109822217667,29.541109822217667 0 0,0 0.04347660409966355,0.505264042157366 l -8.515636188072675 0.6591640976040882" fill="#ff4106" stroke="none" /><path d="M 120.93736805541906 98.37931529534042 l 8.95382248165813 -0.6930824880114066 a29.980606904226164,29.980606904226164 0 0,0 0.03531435507989649,0.5134629724261386 l -8.964400797903094 0.5392760914309339" fill="#ff4806" stroke="none" /><path d="M 120.99303781780057 99.45929381324524 l 8.407892940637288 -0.21655749730129198 a29.410681354733143,29.410681354733143 0 0,0 0.008667143490171607,0.5048176570364113 l -8.410371515726125 0.07219292429581425" fill="#ff3f05" stroke="none" /><line stroke="#e1ed5e" stroke-width="0.3" x1="184.99686870605535" x2="189.99668451229388" y1="99.2704041080226" y2="99.22748670261217" /><path d="M 185.99683186730306 99.26182062694052 a86.0,86.0 0 0,1 -10.086455211305974,41.156179273409016" fill="none" id="id64" stroke="none" /><text fill="#e1ed5e" style="font-size:6.75px; font-family:Arial;" text-anchor="middle"><textPath startOffset="21.40746469413373" xlink:href="#id64">April</textPath></text><path d="M 120.99922638620191 99.81974689727618 l 8.686802551265945 -0.07456575227189408 a29.687122574022563,29.687122574022563 0 0,0 0.0,0.5096377099914409 l -8.686802551265945 -0.07456575227189302" fill="#ff4306" stroke="none" /><path d="M 120.99303781780057 100.54070618675476 l 8.724909421163241 0.2247227173047636 a29.727802971376928,29.727802971376928 0 0,0 -0.017518612698423187,0.5100352942314058 l -8.719766121467973 -0.3744642761002801" fill="#ff4406" stroke="none" /><path d="M 120.98066250479742 100.90099992219065 l 14.630542904386992 0.6282984636660232 a35.64402760979894,35.64402760979894 0 0,0 -0.0314998332287575,0.6110883493898196 l -14.617601481701662 -0.8793586064325734" fill="#ff990e" stroke="none" /><path d="M 120.93736805541906 101.62068470465957 l 62.812104166257186 4.86205411397871 a84.0,84.0 0 0,0 -0.12362550920903681,1.4367158104973705 l -62.7193850343504 -5.939590971851738" fill="#4dd2ff" stroke="none" /><path d="M 120.82617615685814 102.69636545807757 l 7.601531805061181 0.9841704801337454 a28.664977320078865,28.664977320078865 0 0,0 -0.0673701815984013,0.4874570736275979 l -7.5835171069075695 -1.1145158619614284" fill="#ff3405" stroke="none" /><path d="M 120.77682067341334 103.0534771498775 l 13.194026134032962 1.9390674804595767 a34.33575300908504,34.33575300908504 0 0,0 -0.09070934967871566,0.5824190954342309 l -13.158795292215979 -2.1652747578252582" fill="#ff870c" stroke="none" /><path d="M 120.7213421655516 103.40968896794604 l 8.575808216857652 1.4111459786061646 a29.69113453728911,29.69113453728911 0 0,0 -0.08707304473055118,0.5022141832446307 l -8.550320354634867 -1.5581531947713834" fill="#ff4306" stroke="none" /><path d="M 120.51834098615036 104.47187691870673 l 13.920681358546803 3.033947710586128 a35.24746321970207,35.24746321970207 0 0,0 -0.13392212964656916,0.5900856135140267 l -13.866548367342569 -3.272467658039172" fill="#ff930d" stroke="none" /><path d="M 120.16314734710363 105.8691983318838 l 4.055284362244308 1.180434175501758 a25.22359516305194,25.22359516305194 0 0,0 -0.12458495776430448,0.4147028053358452 l -4.034423084476374 -1.2498745844283266" fill="#ff0000" stroke="none" /><path d="M 120.05942366710727 106.21446072829308 l 8.389693758371296 2.5991485722143173 a29.7830822983562,29.7830822983562 0 0,0 -0.15548936632427104,0.487068225398739 l -8.34383967626977 -2.74278583130444" fill="#ff4506" stroke="none" /><path d="M 119.94978838288452 106.5578916946017 l 14.587140878422142 4.795082944170952 a36.35504801192147,36.35504801192147 0 0,0 -0.19997800213397804,0.5911994295467944 l -14.5026774547158 -5.044784048191906" fill="#ffa30f" stroke="none" /><path d="M 119.83427380445688 106.89939002012753 l 6.383164538741046 2.2203959746449535 a27.758324334689828,27.758324334689828 0 0,0 -0.16041645338681096,0.4487133705270482 l -6.344107915310292 -2.329644301552923" fill="#ff2703" stroke="none" /><path d="M 119.71291397450082 107.23885506374661 l 8.99350230495463 3.3025386193664525 a30.580701698812625,30.580701698812625 0 0,0 -0.1851869963577417,0.4912305093776128 l -8.935484624782449 -3.456437408938224" fill="#ff5107" stroke="none" /><path d="M 119.16976305983485 108.57439118712176 l 7.145181133511387 3.195948637984707 a28.827368723097397,28.827368723097397 0 0,0 -0.20593110218171784,0.4499966229138573 l -7.089265566474613 -3.318134243113253" fill="#ff3705" stroke="none" /><path d="M 118.70294669586154 109.54985784667822 l 10.725223489875116 5.476375534173191 a33.04247100470081,33.04247100470081 0 0,0 -0.26228158560061077,0.5029595235125307 l -10.629633835299556 -5.659681300790225" fill="#ff740a" stroke="none" /><path d="M 118.5362547648365 109.86951160357373 l 7.2550499713961925 3.862905467453717 a29.219354520760113,29.219354520760113 0 0,0 -0.23953560771366297,0.44071853873536976 l -7.187669014067191 -3.9868788396636905" fill="#ff3c05" stroke="none" /><line stroke="#e1ed5e" stroke-width="0.3" x1="174.33088141563837" x2="178.70328620479359" y1="141.23008692659167" y2="143.65538615756765" /><path d="M 175.20536237346943 141.71514677278685 a86.0,86.0 0 0,1 -30.301960400862466,31.631185727798858" fill="none" id="id65" stroke="none" /><text fill="#e1ed5e" style="font-size:6.75px; font-family:Arial;" text-anchor="middle"><textPath startOffset="22.145653131862474" xlink:href="#id65">May</textPath></text><path d="M 118.36410011445183 110.18625677009912 l 18.15225151177301 10.068747921322204 a41.75774360689995,41.75774360689995 0 0,0 -0.35308485793225125,0.6238671120286429 l -17.976733288819382 -10.37887180344997" fill="#ffeb16" stroke="none" /><path d="M 118.18653347947321 110.5 l 19.13806126212321 11.049364821454377 a43.098729642908765,43.098729642908765 0 0,0 -0.37542336722369535,0.6375509529334179 l -18.945564184769747 -11.376266942681346" fill="#fffd17" stroke="none" /><path d="M 118.00360718960297 110.81064883170644 l 17.526721865815695 10.524292896800457 a41.443745262043024,41.443745262043024 0 0,0 -0.37147812053647794,0.6067815922317606 l -17.343475780823812 -10.823611605156774" fill="#ffe715" stroke="none" /><path d="M 117.423217284605 111.72311816256416 l 5.337698517571157 3.5914417765380477 a27.433465590080054,27.433465590080054 0 0,0 -0.2662486591420033,0.38846475062576125 l -5.275260121613834 -3.6825412622338534" fill="#ff2203" stroke="none" /><path d="M 117.21940702142032 112.02048342749411 l 7.014973639080608 4.896996410386333 a29.55514050149572,29.55514050149572 0 0,0 -0.293982029123243,0.4135225403399873 l -6.929876511427405 -5.016696177435824" fill="#ff4106" stroke="none" /><path d="M 117.01052211995028 112.31430620078461 l 6.964917193139949 5.042062928735388 a29.598399274552452,29.598399274552452 0 0,0 -0.3014779918275361,0.4090127964388457 l -6.877337181728585 -5.1608820344431106" fill="#ff4206" stroke="none" /><path d="M 116.79662413953412 112.60449989151573 l 6.725913325316673 5.047250749616982 a29.40908141173467,29.40908141173467 0 0,0 -0.30648187213259115,0.40119460882183045 l -6.638279475829778 -5.161966271679689" fill="#ff3f05" stroke="none" /><path d="M 116.57777611688842 112.89097897827486 l 6.666868881565993 5.184197566501644 a29.4452972175356,29.4452972175356 0 0,0 -0.31370959272853965,0.3963618223286569 l -6.576892858195891 -5.2978793327449845" fill="#ff4006" stroke="none" /><path d="M 116.35404254752997 113.17365903436017 l 6.7431951936317915 5.431840722247498 a29.658843747942626,29.658843747942626 0 0,0 -0.3227915750617539,0.3937532363993964 l -6.64895679933141 -5.546796240345387" fill="#ff4306" stroke="none" /><line stroke="#e1ed5e" stroke-width="0.3" x1="143.1302829299769" x2="145.66735839644613" y1="173.24464959558577" y2="177.55315839532614" /><path d="M 143.63769802327073 174.10635135553383 a86.0,86.0 0 0,1 -40.68552437913181,11.842963189579606" fill="none" id="id66" stroke="none" /><text fill="#e1ed5e" style="font-size:6.75px; font-family:Arial;" text-anchor="middle"><textPath startOffset="21.407464694133747" xlink:href="#id66">June</textPath></text><line stroke="#e1ed5e" stroke-width="0.3" x1="101.45913802915013" x2="101.54496967792366" y1="184.9874750549273" y2="189.98673829345242" /><path d="M 101.47630435890484 185.9873277026323 a86.0,86.0 0 0,1 -42.54439059252881,-10.42667462771756" fill="none" id="id67" stroke="none" /><text fill="#e1ed5e" style="font-size:6.75px; font-family:Arial;" text-anchor="middle"><textPath startOffset="22.145653131862474" xlink:href="#id67">July</textPath></text><line stroke="#e1ed5e" stroke-width="0.3" x1="58.13341422392154" x2="55.67067388415222" y1="173.97424548756322" y2="178.32567169271397" /><path d="M 57.64086615596768 174.84453072859336 a86.0,86.0 0 0,1 -31.369924170532247,-30.572349798747897" fill="none" id="id68" stroke="none" /><text fill="#e1ed5e" style="font-size:6.75px; font-family:Arial;" text-anchor="middle"><textPath startOffset="22.145653131862474" xlink:href="#id68">August</textPath></text><line stroke="#e1ed5e" stroke-width="0.3" x1="26.387840678322732" x2="22.057713659400548" y1="142.50000000000003" y2="145.00000000000006" /><path d="M 25.521815274538298 143.00000000000003 a86.0,86.0 0 0,1 -11.493303480769221,-40.785679425670985" fill="none" id="id69" stroke="none" /><text fill="#e1ed5e" style="font-size:6.75px; font-family:Arial;" text-anchor="middle"><textPath startOffset="21.40746469413373" xlink:href="#id69">September</textPath></text><line stroke="#e1ed5e" stroke-width="0.3" x1="15.003131293944662" x2="10.003315487706104" y1="100.72959589197737" y2="100.7725132973878" /><path d="M 14.003168132696942 100.73817937305945 a86.0,86.0 0 0,1 10.791469493833604,-42.45332614584628" fill="none" id="id70" stroke="none" /><text fill="#e1ed5e" style="font-size:6.75px; font-family:Arial;" text-anchor="middle"><textPath startOffset="22.145653131862435" xlink:href="#id70">October</textPath></text><line stroke="#e1ed5e" stroke-width="0.3" x1="26.387840678322718" x2="22.05771365940052" y1="57.49999999999999" y2="54.99999999999999" /><path d="M 25.521815274538284 56.99999999999999 a86.0,86.0 0 0,1 29.574782752854787,-30.34633250058573" fill="none" id="id71" stroke="none" /><text fill="#e1ed5e" style="font-size:6.75px; font-family:Arial;" text-anchor="middle"><textPath startOffset="21.40746469413373" xlink:href="#id71">November</textPath></text><line stroke="#e1ed5e" stroke-width="0.3" x1="56.869717070023135" x2="54.33264160355391" y1="26.7553504044142" y2="22.446841604673864" /><path d="M 56.362301976729285 25.89364864446614 a86.0,86.0 0 0,1 42.16139366436587,-11.88097634709845" fill="none" id="id72" stroke="none" /><text fill="#e1ed5e" style="font-size:6.75px; font-family:Arial;" text-anchor="middle"><textPath startOffset="22.145653131862474" xlink:href="#id72">December</textPath></text></svg>