<?xml version="1.0" encoding="utf-8" ?>
<svg baseProfile="full" height="200mm" version="1.1" viewBox="0,0,200,200" width="200mm" xmlns="http://www.w3.org/2000/svg" xmlns:ev="http://www.w3.org/2001/xml-events" xmlns:xlink="http://www.w3.org/1999/xlink"><defs /><rect fill="#1a1a1a" height="200" width="200" x="0" y="0" /><text alignment-baseline="middle" fill="#e1ed5e" style="dominant-baseline: central; font-size:9.0px; font-family:Arial;" text-anchor="middle" x="100.0" y="100.0">2023</text><line stroke="#e1ed5e" stroke-width="0.3" x1="100.0" x2="100.0" y1="15.0" y2="10.0" /><path d="M 100.0 14.0 a86.0,86.0 0 0,1 42.46469731375804,11.215312516191453" fill="none" id="id49" stroke="none" /><text fill="#e1ed5e" style="font-size:6.75px; font-family:Arial;" text-anchor="middle"><textPath startOffset="22.20632615414155" xlink:href="#id49">January</textPath></text><path d="M 100.36148047927253 79.00311137660856 l 0.30385534720444685 -17.649685802434895 a38.65230118133884,38.65230118133884 0 0,0 0.6651386731124669,0.017178569576264447 l -0.6076206555117815 17.641840440716273" fill="#ff9e0e" stroke="none" /><path d="M 103.59715602781102 79.31037775812273 l 4.700861042325927 -27.037759392512577 a48.44336946343615,48.44336946343615 0 0,0 0.8203189776863162,0.14990804982522524 l -5.165575141115145 26.952835861336613" fill="#d8ff1c" stroke="none" /><path d="M 106.0581310904928 79.89281104454417 l 6.712998274752635 -22.280720366042868 a44.270041810590484,44.270041810590484 0 0,0 0.7277459992249483,0.22611422444519572 l -7.095529646688301 22.16186600671515" fill="#ffee16" stroke="none" /><line stroke="#e1ed5e" stroke-width="0.3" x1="143.23703022742887" x2="145.7803849466894" y1="26.81831364943548" y2="22.513508569990506" /><path d="M 143.74570117128098 25.957352633546492 a86.0,86.0 0 0,1 28.547481713284135,27.462654790039103" fill="none" id="id50" stroke="none" /><text fill="#e1ed5e" style="font-size:6.75px; font-family:Arial;" text-anchor="middle"><textPath startOffset="19.985693538727396" xlink:href="#id50">February</textPath></text><path d="M 110.99172775467656 82.1063720568725 l 5.263393848537604 -8.56837190166099 a31.05585957787782,31.05585957787782 0 0,0 0.45309145625134156,0.2837258283379 l -5.410104457161209 8.476501732000147" fill="#ff2a04" stroke="none" /><path d="M 113.6212207817346 84.01681056812373 l 5.223661265641088 -6.129462907513627 a29.05338143594009,29.05338143594009 0 0,0 0.3778408876398199,0.32765989445531774 l -5.328395951927672 6.038638019638638" fill="#ff0a01" stroke="none" /><path d="M 114.68862486808459 84.99185889309783 l 7.43118003830164 -7.592827756664545 a31.62419268010649,31.62419268010649 0 0,0 0.3857612387263759,0.3841046573727669 l -7.560777077195339 7.463787248641659" fill="#ff3304" stroke="none" /><path d="M 114.94478906791727 85.2469230424477 l 5.54589586535217 -5.474752981007722 a28.792937902510403,28.792937902510403 0 0,0 0.3451529249066245,0.3557104289149233 l -5.639313053961904 5.378478356542685" fill="#ff0601" stroke="none" /><line stroke="#e1ed5e" stroke-width="0.3" x1="172.23445277983987" x2="176.4835382374775" y1="55.19839476539836" y2="52.563006222186495" /><path d="M 173.08426987136738 54.67131705675599 a86.0,86.0 0 0,1 12.851231095245387,41.99856678651699" fill="none" id="id51" stroke="none" /><text fill="#e1ed5e" style="font-size:6.75px; font-family:Arial;" text-anchor="middle"><textPath startOffset="22.20632615414155" xlink:href="#id51">March</textPath></text><path d="M 118.3937258080291 89.86733742301442 l 27.994348067591684 -15.421415214734527 a52.960969493347974,52.960969493347974 0 0,0 0.4329985485498006,0.8022805493801671 l -28.25565471535995 14.9372536820219" fill="#9fff22" stroke="none" /><path d="M 119.47837535516314 92.15188598940014 l 11.945535955863106 -4.813026055301026 a33.87870525642329,33.87870525642329 0 0,0 0.21328492174075708,0.542786861731716 l -12.026614427485564 4.606690188673525" fill="#ff5608" stroke="none" /><path d="M 119.61058180528143 92.48833698450437 l 7.169549849317841 -2.7462337923278284 a28.677515554134473,28.677515554134473 0 0,0 0.17260506567694614,0.46249576217460786 l -7.215759503496413 2.6224148931238873" fill="#ff0400" stroke="none" /><path d="M 120.28053869075195 94.5502522615342 l 25.582203900442845 -6.874401118101664 a47.48974418782466,47.48974418782466 0 0,0 0.20534490337121203,0.7912776781471693 l -25.69674513568436 6.433027014405645" fill="#e5ff1a" stroke="none" /><path d="M 120.37134235888165 94.90015583598534 l 9.671567866595852 -2.421219381246422 a30.970031508991973,30.970031508991973 0 0,0 0.12501156413578277,0.5182536403920622 l -9.711812230992455 2.2543805091949536" fill="#ff2904" stroke="none" /><path d="M 120.73433829027371 96.67025291283417 l 10.68655450478727 -1.7161639419593246 a31.823477530787898,31.823477530787898 0 0,0 0.08220171934819545,0.5416066245844869 l -10.714512117574767 1.5319582049827556" fill="#ff3605" stroke="none" /><path d="M 120.83666639777658 97.38593545837742 l 13.551503697591373 -1.70010425973518 a34.65773066654202,34.65773066654202 0 0,0 0.06916634561578416,0.5925750100606042 l -13.578760396210747 1.466585511349723" fill="#ff6209" stroke="none" /><line stroke="#e1ed5e" stroke-width="0.3" x1="184.98032266829074" x2="189.97916517819016" y1="98.17113171792111" y2="98.06355123074" /><path d="M 185.9800911702706 98.14961562048488 a86.0,86.0 0 0,1 -9.607161424134198,41.387399972396054" fill="none" id="id52" stroke="none" /><text fill="#e1ed5e" style="font-size:6.75px; font-family:Arial;" text-anchor="middle"><textPath startOffset="21.466115282336823" xlink:href="#id52">April</textPath></text><path d="M 120.99513854157772 99.54816195383933 l 7.812342433110371 -0.168130042767958 a28.814151393686842,28.814151393686842 0 0,0 0.006403592355400144,0.4959652849321133 l -7.814079032583487 0.03362849977538201" fill="#ff0601" stroke="none" /><path d="M 120.99980553446 99.90962569577887 l 9.086031931295702 -0.03910244847621801 a30.086116071127528,30.086116071127528 0 0,0 -0.002228812015246669,0.5178974189226856 l -9.085358821990953 -0.11730444865015228" fill="#ff1b02" stroke="none" /><path d="M 120.89721153311464 102.0752229133903 l 33.1865661295575 3.295632163155666 a54.34980304029274,54.34980304029274 0 0,0 -0.10046353656644273,0.9301675770246837 l -33.12492029149 -3.8663960620651414" fill="#8eff24" stroke="none" /><path d="M 120.49622156327973 104.57218783832717 l 61.488664689839204 13.716563514981502 a84.0,84.0 0 0,0 -0.3269577362777887,1.4085253706057403 l -61.24344638763086 -14.772957542935806" fill="#4dd2ff" stroke="none" /><path d="M 120.41448212921028 104.9243191809786 l 7.501754113234931 1.809550271075964 a28.7169156376747,28.7169156376747 0 0,0 -0.12004858482528934,0.47953442154790926 l -7.46949421411458 -1.938412532021269" fill="#ff0500" stroke="none" /><path d="M 120.32669344350535 105.2749913415812 l 7.417536861948097 1.924929051121071 a28.663237236978162,28.663237236978162 0 0,0 -0.12804540111775828,0.4765045716175868 l -7.383303384488562 -2.0523245559142063" fill="#ff0400" stroke="none" /><path d="M 120.23288151984713 105.62410040840565 l 7.501467418244073 2.085170415751389 a28.785881394530886,28.785881394530886 0 0,0 -0.1368115674713152,0.4762590143591188 l -7.464463213886658 -2.21398690561509" fill="#ff0600" stroke="none" /><path d="M 119.9155931802556 106.66101706037122 l 7.312420294763526 2.4457296298015403 a28.710582597272314,28.710582597272314 0 0,0 -0.16079179820956838,0.46733623056937945 l -7.269237665610727 -2.57123856346022" fill="#ff0500" stroke="none" /><path d="M 119.67450827220406 107.3425965602758 l 12.150970352104853 4.5347854125242275 a33.969593641875356,33.969593641875356 0 0,0 -0.20916489417992978,0.546063536083419 l -12.071111178331416 -4.74327251544079" fill="#ff5808" stroke="none" /><path d="M 119.26925614724726 108.34839909993367 l 6.817501880663634 2.9536805224554077 a28.429842563714566,28.429842563714566 0 0,0 -0.19841175654279497,0.44736613183002244 l -6.765649039389566 -3.0705949907781176" fill="#ff0000" stroke="none" /><line stroke="#e1ed5e" stroke-width="0.3" x1="174.80103733775053" x2="179.2010983576182" y1="140.37084112569926" y2="142.7455964860345" /><path d="M 175.68104954172406 140.8457921977663 a86.0,86.0 0 0,1 -30.038265399797805,32.042727171017184" fill="none" id="id53" stroke="none" /><text fill="#e1ed5e" style="font-size:6.75px; font-family:Arial;" text-anchor="middle"><textPath startOffset="22.206326154141568" xlink:href="#id53">May</textPath></text><line stroke="#e1ed5e" stroke-width="0.3" x1="143.8653032363475" x2="146.44561519142675" y1="172.8068346515853" y2="177.08958963109032" /><path d="M 144.38136562736335 173.6633856474863 a86.0,86.0 0 0,1 -40.68145358897372,12.25698825130547" fill="none" id="id54" stroke="none" /><text fill="#e1ed5e" style="font-size:6.75px; font-family:Arial;" text-anchor="middle"><textPath startOffset="21.466115282336833" xlink:href="#id54">June</textPath></text><line stroke="#e1ed5e" stroke-width="0.3" x1="102.19456741930631" x2="102.32365962044197" y1="184.97166512339345" y2="189.96999836594603" /><path d="M 102.22038585953345 185.97133177190398 a86.0,86.0 0 0,1 -42.740103519485714,-10.115201625700543" fill="none" id="id55" stroke="none" /><text fill="#e1ed5e" style="font-size:6.75px; font-family:Arial;" text-anchor="middle"><textPath startOffset="22.20632615414155" xlink:href="#id55">July</textPath></text><line stroke="#e1ed5e" stroke-width="0.3" x1="58.666819895761336" x2="56.23545636021788" y1="174.27360380694188" y2="178.64263932499728" /><path d="M 58.180547188652646 175.14741091055294 a86.0,86.0 0 0,1 -31.652253787137756,-30.449443065178592" fill="none" id="id56" stroke="none" /><text fill="#e1ed5e" style="font-size:6.75px; font-family:Arial;" text-anchor="middle"><textPath startOffset="22.20632615414155" xlink:href="#id56">August</textPath></text><line stroke="#e1ed5e" stroke-width="0.3" x1="26.63291911575756" x2="22.317208475507996" y1="142.92168965132927" y2="145.44649492493687" /><path d="M 25.769776987707644 143.4266507060508 a86.0,86.0 0 0,1 -11.730757126820373,-40.83630448921669" fill="none" id="id57" stroke="none" /><text fill="#e1ed5e" style="font-size:6.75px; font-family:Arial;" text-anchor="middle"><textPath startOffset="21.46611528233685" xlink:href="#id57">September</textPath></text><line stroke="#e1ed5e" stroke-width="0.3" x1="15.007084014347285" x2="10.007500721073583" y1="101.09737516637583" y2="101.16192664675087" /><path d="M 14.007167355692545 101.11028546245083 a86.0,86.0 0 0,1 10.666146001902534,-42.60595125391555" fill="none" id="id58" stroke="none" /><text fill="#e1ed5e" style="font-size:6.75px; font-family:Arial;" text-anchor="middle"><textPath startOffset="22.20632615414155" xlink:href="#id58">October</textPath></text><line stroke="#e1ed5e" stroke-width="0.3" x1="26.266209847984243" x2="21.928928074336255" y1="57.711370442889674" y2="55.22380399835377" /><path d="M 25.398753493254645 57.213857153982495 a86.0,86.0 0 0,1 29.58750427330803,-30.492523968695096" fill="none" id="id59" stroke="none" /><text fill="#e1ed5e" style="font-size:6.75px; font-family:Arial;" text-anchor="middle"><textPath startOffset="21.46611528233685" xlink:href="#id59">November</textPath></text><line stroke="#e1ed5e" stroke-width="0.3" x1="56.762969772571076" x2="54.21961505331055" y1="26.818313649435495" y2="22.513508569990535" /><path d="M 56.25429882871897 25.957352633546506 a86.0,86.0 0 0,1 42.265352541879196,-11.944610805530505" fill="none" id="id60" stroke="none" /><text fill="#e1ed5e" style="font-size:6.75px; font-family:Arial;" text-anchor="middle"><textPath startOffset="22.20632615414155" xlink:href="#id60">December</textPath></text></svg>