<?xml version="1.0" encoding="utf-8" ?>
<svg baseProfile="full" height="200mm" version="1.1" viewBox="0,0,200,200" width="200mm" xmlns="http://www.w3.org/2000/svg" xmlns:ev="http://www.w3.org/2001/xml-events" xmlns:xlink="http://www.w3.org/1999/xlink"><defs /><rect fill="#1a1a1a" height="200" width="200" x="0" y="0" /><text alignment-baseline="middle" fill="#e1ed5e" style="dominant-baseline: central; font-size:9.0px; font-family:Arial;" text-anchor="middle" x="100.0" y="100.0">2023</text><line stroke="#e1ed5e" stroke-width="0.3" x1="100.0" x2="100.0" y1="15.0" y2="10.0" /><path d="M 100.0 14.0 a86.0,86.0 0 0,1 42.46469731375804,11.215312516191453" fill="none" id="id49" stroke="none" /><text fill="#e1ed5e" style="font-size:6.75px; font-family:Arial;" text-anchor="middle"><textPath startOffset="22.20632615414155" xlink:href="#id49">January</textPath></text><path d="M 100.36148047927253 79.00311137660856 l 0.5989457509373847 -34.79025271072656 a55.7954080258988,55.7954080258988 0 0,0 0.9601416351902061,0.02479762574321755 l -1.1977140213224586 34.77478829284098" fill="#b4ff20" stroke="none" /><path d="M 103.59715602781102 79.31037775812273 l 9.266122097083818 -53.29559361717159 a75.09511362151638,75.09511362151638 0 0,0 1.2716280373877729,0.23238189579075427 l -10.182145255574492 53.1281962400301" fill="#3fffbb" stroke="none" /><path d="M 106.0581310904928 79.89281104454417 l 13.232354900793542 -43.91873604938203 a66.86884119307837,66.86884119307837 0 0,0 1.0992429566540343,0.3415401374729399 l -13.986383230158296 43.684455777026564" fill="#31ff44" stroke="none" /><line stroke="#e1ed5e" stroke-width="0.3" x1="143.23703022742887" x2="145.7803849466894" y1="26.81831364943548" y2="22.513508569990506" /><path d="M 143.74570117128098 25.957352633546492 a86.0,86.0 0 0,1 28.547481713284135,27.462654790039103" fill="none" id="id50" stroke="none" /><text fill="#e1ed5e" style="font-size:6.75px; font-family:Arial;" text-anchor="middle"><textPath startOffset="19.985693538727396" xlink:href="#id50">February</textPath></text><path d="M 110.99172775467656 82.1063720568725 l 10.37496101383544 -16.88958246141414 a40.82165007660849,40.82165007660849 0 0,0 0.5955700834301988,0.37294593160628603 l -10.664150249637903 16.70849218848491" fill="#ff5608" stroke="none" /><path d="M 113.6212207817346 84.01681056812373 l 10.296641965253341 -12.08211669717119 a36.87445682991009,36.87445682991009 0 0,0 0.4795544205609822,0.41586486790275257 l -10.503090184461088 11.903086835848764" fill="#ff0e01" stroke="none" /><path d="M 114.68862486808459 84.99185889309783 l 14.648001917164693 -14.966634499914806 a41.94192227135085,41.94192227135085 0 0,0 0.5116199503849973,0.5094228917257593 l -14.903457667717014 14.712275757538928" fill="#ff6a09" stroke="none" /><path d="M 114.94478906791727 85.2469230424477 l 10.931816057391671 -10.79158246045297 a36.361082459039224,36.361082459039224 0 0,0 0.4358754221608669,0.44920793706806994 l -11.115955743255647 10.601810327834785" fill="#ff0400" stroke="none" /><line stroke="#e1ed5e" stroke-width="0.3" x1="172.23445277983987" x2="176.4835382374775" y1="55.19839476539836" y2="52.563006222186495" /><path d="M 173.08426987136738 54.67131705675599 a86.0,86.0 0 0,1 12.851231095245387,41.99856678651699" fill="none" id="id51" stroke="none" /><text fill="#e1ed5e" style="font-size:6.75px; font-family:Arial;" text-anchor="middle"><textPath startOffset="22.20632615414155" xlink:href="#id51">March</textPath></text><path d="M 118.3937258080291 89.86733742301442 l 55.1811774240873 -30.397987730956764 a84.0,84.0 0 0,0 0.6867676031261407,1.272476066670165 l -55.696253126431905 29.44363068095414" fill="#4dd2ff" stroke="none" /><path d="M 119.47837535516314 92.15188598940014 l 23.54649364988779 -9.487216636124687 a46.38591425781169,46.38591425781169 0 0,0 0.29202462188176675,0.7431708100409318 l -23.706311821651255 9.080496821187971" fill="#ffb710" stroke="none" /><path d="M 119.61058180528143 92.48833698450437 l 14.132288465186651 -5.413250338124514 a36.13356720956605,36.13356720956605 0 0,0 0.2174817664932039,0.5827430090702657 l -14.22337482018148 5.169184192024915" fill="#ff0000" stroke="none" /><path d="M 120.28053869075195 94.5502522615342 l 50.426469261620404 -13.550504797125855 a73.21537113197682,73.21537113197682 0 0,0 0.31658210772669737,1.2199200030402952 l -50.652247701217405 12.680488368536711" fill="#3cffa1" stroke="none" /><path d="M 120.37134235888165 94.90015583598534 l 19.064151846906707 -4.77259680906338 a40.65246971613996,40.65246971613996 0 0,0 0.16409504858662025,0.6802799156081111 l -19.143479695754145 4.443731661795863" fill="#ff5307" stroke="none" /><path d="M 120.73433829027371 96.67025291283417 l 21.06484704544779 -3.3828238021984935 a42.33474344642633,42.33474344642633 0 0,0 0.1093528730822786,0.7204988040193454 l -21.11995581196937 3.0197258857870657" fill="#ff710a" stroke="none" /><path d="M 120.83666639777658 97.38593545837742 l 26.71210374660088 -3.351167691756298 a47.92149348508437,47.92149348508437 0 0,0 0.09563680359527141,0.8193577287925866 l -26.765830903199742 2.8908662246388586" fill="#ffd013" stroke="none" /><line stroke="#e1ed5e" stroke-width="0.3" x1="184.98032266829074" x2="189.97916517819016" y1="98.17113171792111" y2="98.06355123074" /><path d="M 185.9800911702706 98.14961562048488 a86.0,86.0 0 0,1 -9.607161424134198,41.387399972396054" fill="none" id="id52" stroke="none" /><text fill="#e1ed5e" style="font-size:6.75px; font-family:Arial;" text-anchor="middle"><textPath startOffset="21.466115282336823" xlink:href="#id52">April</textPath></text><path d="M 120.99513854157772 99.54816195383933 l 15.399331781483978 -0.33141024387842505 a36.40289752176421,36.40289752176421 0 0,0 0.00809009826802875,0.6265870264599238 l -15.402754886869722 0.06628695935803852" fill="#ff0500" stroke="none" /><line stroke="#e1ed5e" stroke-width="0.3" x1="174.80103733775053" x2="179.2010983576182" y1="140.37084112569926" y2="142.7455964860345" /><path d="M 175.68104954172406 140.8457921977663 a86.0,86.0 0 0,1 -30.038265399797805,32.042727171017184" fill="none" id="id53" stroke="none" /><text fill="#e1ed5e" style="font-size:6.75px; font-family:Arial;" text-anchor="middle"><textPath startOffset="22.206326154141568" xlink:href="#id53">May</textPath></text><line stroke="#e1ed5e" stroke-width="0.3" x1="143.8653032363475" x2="146.44561519142675" y1="172.8068346515853" y2="177.08958963109032" /><path d="M 144.38136562736335 173.6633856474863 a86.0,86.0 0 0,1 -40.68145358897372,12.25698825130547" fill="none" id="id54" stroke="none" /><text fill="#e1ed5e" style="font-size:6.75px; font-family:Arial;" text-anchor="middle"><textPath startOffset="21.466115282336833" xlink:href="#id54">June</textPath></text><line stroke="#e1ed5e" stroke-width="0.3" x1="102.19456741930631" x2="102.32365962044197" y1="184.97166512339345" y2="189.96999836594603" /><path d="M 102.22038585953345 185.97133177190398 a86.0,86.0 0 0,1 -42.740103519485714,-10.115201625700543" fill="none" id="id55" stroke="none" /><text fill="#e1ed5e" style="font-size:6.75px; font-family:Arial;" text-anchor="middle"><textPath startOffset="22.20632615414155" xlink:href="#id55">July</textPath></text><line stroke="#e1ed5e" stroke-width="0.3" x1="58.666819895761336" x2="56.23545636021788" y1="174.27360380694188" y2="178.64263932499728" /><path d="M 58.180547188652646 175.14741091055294 a86.0,86.0 0 0,1 -31.652253787137756,-30.449443065178592" fill="none" id="id56" stroke="none" /><text fill="#e1ed5e" style="font-size:6.75px; font-family:Arial;" text-anchor="middle"><textPath startOffset="22.20632615414155" xlink:href="#id56">August</textPath></text><line stroke="#e1ed5e" stroke-width="0.3" x1="26.63291911575756" x2="22.317208475507996" y1="142.92168965132927" y2="145.44649492493687" /><path d="M 25.769776987707644 143.4266507060508 a86.0,86.0 0 0,1 -11.730757126820373,-40.83630448921669" fill="none" id="id57" stroke="none" /><text fill="#e1ed5e" style="font-size:6.75px; font-family:Arial;" text-anchor="middle"><textPath startOffset="21.46611528233685" xlink:href="#id57">September</textPath></text><line stroke="#e1ed5e" stroke-width="0.3" x1="15.007084014347285" x2="10.007500721073583" y1="101.09737516637583" y2="101.16192664675087" /><path d="M 14.007167355692545 101.11028546245083 a86.0,86.0 0 0,1 10.666146001902534,-42.60595125391555" fill="none" id="id58" stroke="none" /><text fill="#e1ed5e" style="font-size:6.75px; font-family:Arial;" text-anchor="middle"><textPath startOffset="22.20632615414155" xlink:href="#id58">October</textPath></text><line stroke="#e1ed5e" stroke-width="0.3" x1="26.266209847984243" x2="21.928928074336255" y1="57.711370442889674" y2="55.22380399835377" /><path d="M 25.398753493254645 57.213857153982495 a86.0,86.0 0 0,1 29.58750427330803,-30.492523968695096" fill="none" id="id59" stroke="none" /><text fill="#e1ed5e" style="font-size:6.75px; font-family:Arial;" text-anchor="middle"><textPath startOffset="21.46611528233685" xlink:href="#id59">November</textPath></text><line stroke="#e1ed5e" stroke-width="0.3" x1="56.762969772571076" x2="54.21961505331055" y1="26.818313649435495" y2="22.513508569990535" /><path d="M 56.25429882871897 25.957352633546506 a86.0,86.0 0 0,1 42.265352541879196,-11.944610805530505" fill="none" id="id60" stroke="none" /><text fill="#e1ed5e" style="font-size:6.75px; font-family:Arial;" text-anchor="middle"><textPath startOffset="22.20632615414155" xlink:href="#id60">December</textPath></text></svg>